M48
; DRILL file {KiCad (6.0.2)} date Sun 13 Mar 2022 16:00:56 GMT
; FORMAT={-:-/ absolute / metric / decimal}
; #@! TF.CreationDate,2022-03-13T16:00:56+00:00
; #@! TF.GenerationSoftware,Kicad,Pcbnew,(6.0.2)
; #@! TF.FileFunction,Plated,1,2,PTH
FMAT,2
METRIC
; #@! TA.AperFunction,Plated,PTH,ViaDrill
T1C0.400
; #@! TA.AperFunction,Plated,PTH,ComponentDrill
T2C0.800
; #@! TA.AperFunction,Plated,PTH,ComponentDrill
T3C0.900
; #@! TA.AperFunction,Plated,PTH,ComponentDrill
T4C1.000
; #@! TA.AperFunction,Plated,PTH,ComponentDrill
T5C1.016
%
G90
G05
T1
X109.855Y-95.885
X111.125Y-85.725
X111.76Y-86.995
X113.03Y-84.455
X116.131Y-118.671
X118.222Y-118.41
X118.745Y-113.665
X119.38Y-118.41
X120.015Y-88.9
X120.65Y-118.41
X121.92Y-118.41
X123.19Y-118.41
X124.46Y-118.41
X125.73Y-118.41
X125.73Y-120.015
X132.715Y-72.39
X133.35Y-73.025
X136.417Y-115.812
X137.16Y-113.03
X138.43Y-97.79
X138.43Y-111.76
X139.065Y-114.935
X140.97Y-121.92
X141.053Y-115.363
X142.875Y-87.614
X142.875Y-97.155
X142.875Y-99.695
X143.51Y-123.825
X145.415Y-87.614
X145.415Y-95.25
X145.415Y-114.913
X147.955Y-87.614
X148.59Y-95.25
X149.915Y-114.245
X150.495Y-87.614
X151.13Y-95.25
X151.765Y-82.55
X153.035Y-87.614
X153.67Y-95.885
X155.451Y-96.009
X158.115Y-80.01
X158.115Y-90.17
X158.115Y-95.25
X160.02Y-107.95
X164.465Y-107.315
X165.735Y-80.01
X166.37Y-104.14
X168.91Y-104.14
X170.056Y-81.404
X172.72Y-80.01
X173.99Y-81.28
X173.99Y-83.82
X175.26Y-94.615
X176.04Y-83.675
X176.53Y-105.41
X177.253Y-120.811
X178.435Y-106.68
X178.435Y-121.285
X179.581Y-122.044
X180.216Y-122.679
X180.851Y-123.314
X181.486Y-123.949
X187.19Y-100.33
X187.19Y-102.87
X188.889Y-100.965
X188.889Y-102.826
X201.419Y-91.564
X202.054Y-90.929
X202.689Y-90.294
X203.2Y-104.14
X203.835Y-112.395
X209.55Y-98.425
X210.185Y-94.615
T2
X107.95Y-92.71
X107.95Y-95.885
X110.49Y-71.755
X110.49Y-75.565
X111.125Y-98.425
X111.125Y-106.045
X115.57Y-89.535
X115.57Y-92.71
X115.57Y-95.885
X116.205Y-98.425
X116.205Y-106.045
X118.11Y-71.755
X118.11Y-75.565
X121.285Y-98.425
X121.285Y-106.045
X123.19Y-89.535
X126.365Y-98.425
X126.365Y-106.045
X131.445Y-98.425
X131.445Y-106.045
X136.525Y-98.425
X136.525Y-106.045
X141.605Y-98.425
X141.605Y-106.045
X146.685Y-98.425
X146.685Y-106.045
X151.765Y-98.425
X151.765Y-106.045
X156.845Y-98.425
X156.845Y-106.045
X161.925Y-98.425
X161.925Y-106.045
X167.005Y-98.425
X167.005Y-106.045
X172.085Y-98.425
X172.085Y-106.045
X179.07Y-76.2
X179.07Y-79.375
X179.07Y-82.55
X179.07Y-85.725
X179.07Y-88.9
X179.07Y-92.075
X179.07Y-95.25
X179.07Y-98.425
X179.07Y-101.6
X179.07Y-104.775
X186.69Y-76.2
X186.69Y-79.375
X186.69Y-82.55
X186.69Y-85.725
X186.69Y-88.9
X186.69Y-92.075
X186.69Y-95.25
X186.69Y-98.425
X186.69Y-101.6
X186.69Y-104.775
X189.31Y-115.57
X194.31Y-115.57
T3
X111.125Y-108.47
X111.125Y-111.01
X114.935Y-80.645
X114.935Y-85.725
X116.205Y-108.475
X116.205Y-111.015
X117.475Y-80.645
X117.475Y-85.725
X120.65Y-75.565
X120.65Y-80.645
X120.65Y-85.725
X121.285Y-108.475
X121.285Y-111.015
X123.19Y-75.565
X123.19Y-80.645
X123.19Y-85.725
X126.365Y-108.47
X126.365Y-111.01
X131.445Y-108.475
X131.445Y-111.015
X136.525Y-108.47
X136.525Y-111.01
X141.605Y-108.47
X141.605Y-111.01
X146.685Y-108.475
X146.685Y-111.015
X151.765Y-108.475
X151.765Y-111.015
X156.845Y-108.475
X156.845Y-111.015
X161.925Y-108.475
X161.925Y-111.015
X167.005Y-108.475
X167.005Y-111.015
X172.085Y-108.475
X172.085Y-111.015
X177.165Y-108.475
X177.165Y-111.015
X182.245Y-108.475
X182.245Y-111.015
X191.107Y-106.059
X191.112Y-75.579
X191.112Y-80.659
X191.112Y-85.739
X191.112Y-90.819
X191.112Y-95.899
X191.112Y-100.979
X191.112Y-111.139
X193.647Y-106.059
X193.652Y-75.579
X193.652Y-80.659
X193.652Y-85.739
X193.652Y-90.819
X193.652Y-95.899
X193.652Y-100.979
X193.652Y-111.139
T4
X107.315Y-71.12
X107.315Y-73.66
X107.315Y-76.2
X115.565Y-125.73
X115.565Y-128.27
X118.105Y-125.73
X118.105Y-128.27
X120.645Y-125.73
X120.645Y-128.27
X123.185Y-125.73
X123.185Y-128.27
X125.725Y-125.73
X125.725Y-128.27
X136.525Y-77.47
X136.525Y-92.71
X138.425Y-125.73
X138.425Y-128.27
X139.065Y-77.47
X139.065Y-92.71
X140.965Y-125.73
X140.965Y-128.27
X141.605Y-77.47
X141.605Y-92.71
X143.505Y-125.73
X143.505Y-128.27
X144.145Y-77.47
X144.145Y-92.71
X146.045Y-125.73
X146.045Y-128.27
X146.685Y-77.47
X146.685Y-92.71
X148.585Y-125.73
X148.585Y-128.27
X149.225Y-77.47
X149.225Y-92.71
X151.765Y-77.47
X151.765Y-92.71
X154.305Y-77.47
X154.305Y-92.71
X156.845Y-77.47
X156.845Y-92.71
X159.385Y-77.47
X159.385Y-92.71
X161.285Y-125.73
X161.285Y-128.27
X161.925Y-77.47
X161.925Y-92.71
X163.825Y-125.73
X163.825Y-128.27
X164.465Y-77.47
X164.465Y-92.71
X166.365Y-125.73
X166.365Y-128.27
X167.005Y-77.47
X167.005Y-92.71
X168.905Y-125.73
X168.905Y-128.27
X169.545Y-77.47
X169.545Y-92.71
X171.445Y-125.73
X171.445Y-128.27
X184.15Y-125.73
X184.15Y-128.27
X186.69Y-125.73
X186.69Y-128.27
X189.23Y-125.73
X189.23Y-128.27
X191.77Y-125.73
X191.77Y-128.27
X194.31Y-125.73
X194.31Y-128.27
X205.105Y-73.025
X205.105Y-75.565
X205.105Y-78.105
X205.105Y-80.645
X205.105Y-83.185
X205.105Y-94.615
X205.105Y-97.155
X205.105Y-99.695
X205.105Y-102.235
X205.105Y-104.775
X205.105Y-116.205
X205.105Y-118.745
X205.105Y-121.285
X205.105Y-123.825
X205.105Y-126.365
X207.645Y-73.025
X207.645Y-75.565
X207.645Y-78.105
X207.645Y-80.645
X207.645Y-83.185
X207.645Y-94.615
X207.645Y-97.155
X207.645Y-99.695
X207.645Y-102.235
X207.645Y-104.775
X207.645Y-116.205
X207.645Y-118.745
X207.645Y-121.285
X207.645Y-123.825
X207.645Y-126.365
T5
X122.174Y-70.866
X124.714Y-70.866
X127.254Y-70.866
X129.794Y-70.866
X131.318Y-119.126
X132.334Y-70.866
X133.858Y-119.126
X134.874Y-70.866
X136.398Y-119.126
X137.414Y-70.866
X138.938Y-119.126
X139.954Y-70.866
X141.478Y-119.126
X142.494Y-70.866
X144.018Y-119.126
X145.034Y-70.866
X146.558Y-119.126
X149.098Y-70.866
X149.098Y-119.126
X151.638Y-70.866
X154.178Y-70.866
X154.178Y-119.126
X156.718Y-70.866
X156.718Y-119.126
X159.258Y-70.866
X159.258Y-119.126
X161.798Y-70.866
X161.798Y-119.126
X164.338Y-70.866
X164.338Y-119.126
X166.878Y-70.866
X166.878Y-119.126
X169.418Y-119.126
X171.958Y-70.866
X171.958Y-119.126
X174.498Y-70.866
X177.038Y-70.866
X177.038Y-119.126
X179.578Y-70.866
X179.578Y-119.126
X182.118Y-70.866
X182.118Y-119.126
X184.658Y-70.866
X184.658Y-119.126
X187.198Y-70.866
X187.198Y-119.126
X189.738Y-70.866
X189.738Y-119.126
X192.278Y-119.126
X194.818Y-119.126
X197.358Y-70.866
X197.358Y-73.406
X197.358Y-75.946
X197.358Y-78.486
X197.358Y-81.026
X197.358Y-83.566
X197.358Y-86.106
X197.358Y-88.646
X197.358Y-91.186
X197.358Y-93.726
X197.358Y-96.266
X197.358Y-98.806
X197.358Y-101.346
X197.358Y-103.886
X197.358Y-106.426
X197.358Y-108.966
X197.358Y-111.506
X197.358Y-114.046
X199.898Y-70.866
X199.898Y-73.406
X199.898Y-75.946
X199.898Y-78.486
X199.898Y-81.026
X199.898Y-83.566
X199.898Y-86.106
X199.898Y-88.646
X199.898Y-91.186
X199.898Y-93.726
X199.898Y-96.266
X199.898Y-98.806
X199.898Y-101.346
X199.898Y-103.886
X199.898Y-106.426
X199.898Y-108.966
X199.898Y-111.506
X199.898Y-114.046
T0
M30
