%FSLAX45Y45*%
G04 Gerber Fmt 4.5, Leading zero omitted, Abs format (unit mm)*
G04 Created by KiCad (PCBNEW (6.0.2)) date 2022-03-13 16:00:55*
%MOMM*%
%LPD*%
G01*
G04 APERTURE LIST*
%TA.AperFunction,Profile*%
%ADD10C,0.150000*%
%TD*%
%ADD11C,0.200000*%
G04 APERTURE END LIST*
D10*
X20637500Y-13081000D02*
G75*
G03*
X21145500Y-12573000I0J508000D01*
G01*
X21145500Y-7302500D02*
G75*
G03*
X20637500Y-6794500I-508000J0D01*
G01*
X10858500Y-6790547D02*
G75*
G03*
X10350500Y-7239000I0J-511953D01*
G01*
X10350500Y-12573000D02*
G75*
G03*
X10858500Y-13081000I508000J0D01*
G01*
X10350500Y-12573000D02*
X10350500Y-7239000D01*
X20637500Y-13081000D02*
X10858500Y-13081000D01*
X21145500Y-7302500D02*
X21145500Y-12573000D01*
X10858500Y-6790547D02*
X20637500Y-6794500D01*
D11*
X10600619Y-13398976D02*
X10600619Y-13198976D01*
X10648238Y-13198976D01*
X10676810Y-13208500D01*
X10695857Y-13227548D01*
X10705381Y-13246595D01*
X10714905Y-13284690D01*
X10714905Y-13313262D01*
X10705381Y-13351357D01*
X10695857Y-13370405D01*
X10676810Y-13389452D01*
X10648238Y-13398976D01*
X10600619Y-13398976D01*
X10800619Y-13398976D02*
X10800619Y-13265643D01*
X10800619Y-13303738D02*
X10810143Y-13284690D01*
X10819667Y-13275167D01*
X10838714Y-13265643D01*
X10857762Y-13265643D01*
X10924429Y-13398976D02*
X10924429Y-13265643D01*
X10924429Y-13198976D02*
X10914905Y-13208500D01*
X10924429Y-13218024D01*
X10933952Y-13208500D01*
X10924429Y-13198976D01*
X10924429Y-13218024D01*
X11048238Y-13398976D02*
X11029190Y-13389452D01*
X11019667Y-13370405D01*
X11019667Y-13198976D01*
X11153000Y-13398976D02*
X11133952Y-13389452D01*
X11124429Y-13370405D01*
X11124429Y-13198976D01*
X11381571Y-13398976D02*
X11381571Y-13198976D01*
X11448238Y-13341833D01*
X11514905Y-13198976D01*
X11514905Y-13398976D01*
X11695857Y-13398976D02*
X11695857Y-13294214D01*
X11686333Y-13275167D01*
X11667286Y-13265643D01*
X11629190Y-13265643D01*
X11610143Y-13275167D01*
X11695857Y-13389452D02*
X11676809Y-13398976D01*
X11629190Y-13398976D01*
X11610143Y-13389452D01*
X11600619Y-13370405D01*
X11600619Y-13351357D01*
X11610143Y-13332309D01*
X11629190Y-13322786D01*
X11676809Y-13322786D01*
X11695857Y-13313262D01*
X11791095Y-13265643D02*
X11791095Y-13465643D01*
X11791095Y-13275167D02*
X11810143Y-13265643D01*
X11848238Y-13265643D01*
X11867286Y-13275167D01*
X11876809Y-13284690D01*
X11886333Y-13303738D01*
X11886333Y-13360881D01*
X11876809Y-13379928D01*
X11867286Y-13389452D01*
X11848238Y-13398976D01*
X11810143Y-13398976D01*
X11791095Y-13389452D01*
X11972048Y-13379928D02*
X11981571Y-13389452D01*
X11972048Y-13398976D01*
X11962524Y-13389452D01*
X11972048Y-13379928D01*
X11972048Y-13398976D01*
X11972048Y-13275167D02*
X11981571Y-13284690D01*
X11972048Y-13294214D01*
X11962524Y-13284690D01*
X11972048Y-13275167D01*
X11972048Y-13294214D01*
M02*
